<svg xmlns="http://www.w3.org/2000/svg" width="32" height="32" viewBox="0 0 32 32" fill="none">
  <g clip-path="url(#clip0_59_8066)">
    <path d="M15.9996 0C7.1637 0 0 7.1637 0 15.9996C0 24.8355 7.1637 31.9992 15.9996 31.9992C24.8355 31.9992 31.9992 24.8355 31.9992 15.9996C31.9992 7.1637 24.8363 0 15.9996 0ZM22.5413 24.2843L9.6491 24.2923C9.08179 24.1943 8.92509 23.8616 8.92509 23.4887C8.92509 23.1159 9.16054 22.8025 9.5816 22.7045H9.86043C9.91106 22.6972 9.96248 22.6988 10.0139 22.7045H13.2772C13.2964 22.7013 13.6106 22.694 13.6106 22.694C14.0421 22.6844 14.4536 22.3131 14.4536 21.9194C14.4536 21.5257 14.3065 20.9977 13.6106 20.9881H13.3222C13.1148 20.9519 11.5712 20.9776 11.5712 20.9776L8.73867 20.968C8.24529 20.968 7.8419 20.526 7.8419 19.986V19.8952C7.8419 19.3552 8.24529 18.9133 8.73867 18.9133H13.4306C13.4306 18.9133 13.4363 18.9109 13.4395 18.9101H13.5471C14.1 18.9101 14.5524 18.4577 14.5524 17.9048C14.5524 17.352 14.1 16.8996 13.5471 16.8996H13.4796C13.4459 16.894 13.413 16.8883 13.376 16.8851L5.26731 16.8956C4.57625 16.8956 4.01055 16.276 4.01055 15.5191C4.01055 14.7621 4.57625 14.1426 5.26731 14.1426H6.45577C6.72496 14.1337 7.2095 14.1353 7.81056 14.1426C7.81056 14.1426 9.13804 14.1394 10.3763 14.1354C11.4547 14.1321 12.4656 14.1281 12.4712 14.1249H13.1727C13.6476 14.1249 14.0357 13.7368 14.0357 13.2619C14.0357 12.787 13.6476 12.3989 13.1727 12.3989H12.3981C12.284 12.382 8.70171 12.3812 8.70171 12.3812C8.08297 12.3812 7.57592 11.8267 7.57592 11.1485C7.57592 10.4703 8.08216 9.91588 8.70171 9.91588H9.82909L10.2003 9.90784L14.2125 9.88454H27.1931L22.5405 24.2835L22.5413 24.2843Z" fill="#51B848"/>
    <path d="M16.8948 22.2127L21.0893 22.2561C21.1375 22.2561 21.1801 22.2264 21.1954 22.1814L23.5667 15.2869C23.5876 15.2274 23.5538 15.1623 23.4936 15.1438L15.9635 12.8802C15.8871 12.8569 15.8124 12.9196 15.8204 12.9983L16.7847 22.1131C16.7903 22.1693 16.8377 22.2119 16.894 22.2127H16.8948Z" fill="#51B848"/>
  </g>
  <defs>
    <clipPath id="clip0_59_8066">
      <rect width="32" height="32" fill="white"/>
    </clipPath>
  </defs>
</svg>
