<svg xmlns="http://www.w3.org/2000/svg" width="172" height="33" viewBox="0 0 172 33" fill="none">
    <g clip-path="url(#clip0_19_147)">
        <path d="M15.5378 0C6.95555 0 0 7.38715 0 16.5019C0 25.6167 6.95555 33.0038 15.5378 33.0038C24.12 33.0038 31.0756 25.6167 31.0756 16.5019C31.0756 7.38715 24.1164 0 15.5378 0ZM21.8901 25.0446L9.37222 25.0522C8.82282 24.9493 8.66841 24.6098 8.66841 24.2247C8.66841 23.8395 8.89822 23.5153 9.30759 23.4162H9.5769C9.62717 23.4085 9.67745 23.4085 9.72772 23.4162H12.8949C12.9128 23.4162 13.2181 23.4047 13.2181 23.4047C13.6382 23.3933 14.0368 23.0119 14.0368 22.6077C14.0368 22.2034 13.8932 21.658 13.2181 21.6466H12.938C12.7369 21.6085 11.2359 21.6352 11.2359 21.6352L8.48527 21.6237C8.00768 21.6237 7.61269 21.1661 7.61269 20.6093V20.5139C7.61269 19.9571 8.00409 19.4995 8.48527 19.4995H13.0421H13.0493H13.1534C13.6885 19.4995 14.1301 19.0342 14.1301 18.4622C14.1301 17.8901 13.6921 17.4248 13.1534 17.4248H13.0888C13.0565 17.421 13.0242 17.4134 12.9882 17.4096L5.11343 17.421C4.44193 17.421 3.89252 16.7841 3.89252 16.0023C3.89252 15.2205 4.44193 14.5836 5.11343 14.5836H6.2661C6.52824 14.576 6.99864 14.576 7.58037 14.5836H10.4244C10.4244 14.5836 12.0941 14.5722 12.1085 14.5645H12.7907C13.2504 14.5645 13.6274 14.1641 13.6274 13.676C13.6274 13.1878 13.2504 12.7874 12.7907 12.7874H12.0403C11.9289 12.7683 9.05622 12.7683 9.05622 12.7683H8.45295C7.85328 12.7683 7.36132 12.1962 7.36132 11.4983C7.36132 10.8004 7.85328 10.2284 8.45295 10.2284H9.54817L9.90726 10.2207L13.8034 10.1979H26.4074L21.8901 25.0484V25.0446Z" fill="#51B848"/>
        <path d="M16.4032 22.9089L20.4753 22.9547C20.5219 22.9547 20.565 22.9242 20.5794 22.8784L22.8812 15.7697C22.9027 15.7086 22.8704 15.64 22.8093 15.6209L15.4983 13.2869C15.4229 13.2641 15.3511 13.3289 15.3582 13.409L16.2955 22.8098C16.3026 22.867 16.3457 22.9127 16.4032 22.9127V22.9089Z" fill="#51B848"/>
        <path d="M48.6853 8.37493L48.2723 12.8942C47.2166 12.242 45.159 11.5479 43.0512 11.5479C41.7333 11.5479 40.6417 11.7729 40.6417 12.856C40.6417 13.6035 41.4317 13.7751 42.2863 14.0421L44.9974 14.8811C47.9491 15.7888 49.6907 17.2685 49.6907 20.0944C49.6907 23.5077 46.9401 25.8417 42.5341 25.8417C39.2951 25.8417 36.7707 24.9493 35.5785 24.3353L36.0813 19.8008C37.0723 20.3728 39.4459 21.3759 42.1714 21.3759C43.4282 21.3759 44.3798 21.0708 44.3798 20.2012C44.3798 19.6559 44.0028 19.2821 42.9722 18.9885L40.3472 18.241C38.0742 17.6003 35.5283 16.2693 35.5283 12.7874C35.5283 9.30547 38.4548 7.16217 42.7962 7.16217C45.3565 7.16217 47.3279 7.69609 48.6853 8.37493Z" fill="#51B848"/>
        <path d="M65.013 25.548H51.7196V7.44055H64.952V11.7081H56.7289V14.2556H64.1225V18.4965H56.7289V21.311H65.013V25.5518V25.548Z" fill="#51B848"/>
        <path d="M77.8505 25.548L74.5361 20.6283H72.3528V25.548H67.383V7.44055H76.0191C80.2743 7.44055 82.6587 10.3085 82.6587 13.962C82.6587 16.5896 81.2259 18.6948 79.5705 19.4957L83.7898 25.548H77.8505ZM72.3528 11.8568V16.3112H75.1645C76.6332 16.3112 77.574 15.5371 77.574 14.0726C77.574 12.6081 76.6834 11.8606 75.1645 11.8606H72.3528V11.8568Z" fill="#51B848"/>
        <path d="M96.4369 7.44055H101.949L96.0096 25.5442H89.23L83.2404 7.44055H88.7524L92.6198 20.4262L96.4369 7.44055Z" fill="#51B848"/>
        <path d="M117.085 25.548H103.791V7.44055H117.023V11.7081H108.8V14.2556H116.194V18.4965H108.8V21.311H117.085V25.5518V25.548Z" fill="#51B848"/>
        <path d="M135.965 25.4794H130.963V18.3821H124.467V25.4794H119.465V7.39478H124.467V14.1336H130.963V7.39478H135.965V25.4794Z" fill="#51B848"/>
        <path d="M138.54 7.39478H143.391V18.3668C143.391 20.2698 144.961 21.2309 146.476 21.2309C148.092 21.2309 149.575 20.1936 149.575 18.3668V7.39478H154.426V18.7406C154.426 23.5878 150.44 25.7463 146.476 25.7463C142.188 25.7463 138.54 23.4162 138.54 18.7406V7.39478Z" fill="#51B848"/>
        <path d="M156.94 25.4794V7.39478H165.992C168.739 7.39478 171.145 9.11094 171.145 12.1085C171.145 13.92 170.481 15.2777 168.962 16.1968C171.056 16.9443 171.996 18.6071 171.996 20.5368C171.996 23.6412 169.687 25.4794 166.804 25.4794H156.936H156.94ZM161.766 11.3877V14.4654H164.951C165.777 14.4654 166.269 13.8132 166.269 12.8789C166.269 12.0132 165.741 11.3877 164.851 11.3877H161.766ZM161.766 18.2715V21.6657H165.263C166.215 21.6657 166.818 20.9334 166.818 19.9991C166.818 18.9999 166.229 18.2677 165.263 18.2677H161.766V18.2715Z" fill="#51B848"/>
    </g>
    <defs>
        <clipPath id="clip0_19_147">
            <rect width="172" height="33" fill="white"/>
        </clipPath>
    </defs>
</svg>
