<svg width="26" height="24" viewBox="0 0 26 24" fill="none" xmlns="http://www.w3.org/2000/svg">
<path d="M20.583 16.6667C22.8382 16.6667 24.6663 13.2715 24.6663 9.08333C24.6663 4.89517 22.8382 1.5 20.583 1.5M20.583 16.6667C18.3278 16.6667 16.4997 13.2715 16.4997 9.08333C16.4997 4.89517 18.3278 1.5 20.583 1.5M20.583 16.6667L5.35048 13.8971C4.2684 13.7004 3.72736 13.602 3.28989 13.3871C2.39989 12.9499 1.73709 12.1558 1.46618 11.2019C1.33301 10.7331 1.33301 10.1831 1.33301 9.08333C1.33301 7.98352 1.33301 7.43361 1.46618 6.96475C1.73709 6.0109 2.39989 5.21673 3.28989 4.77956C3.72736 4.56466 4.2684 4.46629 5.35048 4.26955L20.583 1.5M4.83301 14.3333L5.29251 20.7663C5.33614 21.3772 5.35796 21.6827 5.49086 21.9142C5.60787 22.118 5.78371 22.2817 5.99535 22.3839C6.23572 22.5 6.54196 22.5 7.15443 22.5H9.2339C9.93407 22.5 10.2842 22.5 10.5433 22.3604C10.7709 22.2377 10.9514 22.0428 11.0563 21.8064C11.1756 21.5373 11.1488 21.1883 11.0951 20.4902L10.6663 14.9167" stroke="currentColor" stroke-width="2" stroke-linecap="round" stroke-linejoin="round"/>
</svg>
