<svg width="20" height="20" viewBox="0 0 20 20" fill="none" xmlns="http://www.w3.org/2000/svg">
  <path
      d="M4.16675 12.5001C3.39018 12.5001 3.00189 12.5001 2.69561 12.3732C2.28723 12.2041 1.96277 11.8796 1.79362 11.4712C1.66675 11.1649 1.66675 10.7767 1.66675 10.0001V4.33341C1.66675 3.39999 1.66675 2.93328 1.8484 2.57676C2.00819 2.26316 2.26316 2.00819 2.57676 1.8484C2.93328 1.66675 3.39999 1.66675 4.33341 1.66675H10.0001C10.7767 1.66675 11.1649 1.66675 11.4712 1.79362C11.8796 1.96277 12.2041 2.28723 12.3732 2.69561C12.5001 3.00189 12.5001 3.39018 12.5001 4.16675M10.1667 18.3334H15.6667C16.6002 18.3334 17.0669 18.3334 17.4234 18.1518C17.737 17.992 17.992 17.737 18.1518 17.4234C18.3334 17.0669 18.3334 16.6002 18.3334 15.6667V10.1667C18.3334 9.23333 18.3334 8.76662 18.1518 8.4101C17.992 8.09649 17.737 7.84153 17.4234 7.68174C17.0669 7.50008 16.6002 7.50008 15.6667 7.50008H10.1667C9.23333 7.50008 8.76662 7.50008 8.4101 7.68174C8.09649 7.84153 7.84153 8.09649 7.68174 8.4101C7.50008 8.76662 7.50008 9.23333 7.50008 10.1667V15.6667C7.50008 16.6002 7.50008 17.0669 7.68174 17.4234C7.84153 17.737 8.09649 17.992 8.4101 18.1518C8.76662 18.3334 9.23333 18.3334 10.1667 18.3334Z"
      stroke="currentColor"
      stroke-width="1.66667"
      stroke-linecap="round"
      stroke-linejoin="round"
  />
</svg>
