<svg width="20" height="20" viewBox="0 0 20 20" fill="none" xmlns="http://www.w3.org/2000/svg">
<g clip-path="url(#clip0_18281_368167)">
<path d="M7.08464 12.2221C7.08464 13.2959 7.95519 14.1665 9.02908 14.1665H10.8346C11.9852 14.1665 12.918 13.2338 12.918 12.0832C12.918 10.9326 11.9852 9.99984 10.8346 9.99984H9.16797C8.01738 9.99984 7.08464 9.0671 7.08464 7.9165C7.08464 6.76591 8.01738 5.83317 9.16797 5.83317H10.9735C12.0474 5.83317 12.918 6.70373 12.918 7.77762M10.0013 4.58317V5.83317M10.0013 14.1665V15.4165M18.3346 9.99984C18.3346 14.6022 14.6037 18.3332 10.0013 18.3332C5.39893 18.3332 1.66797 14.6022 1.66797 9.99984C1.66797 5.39746 5.39893 1.6665 10.0013 1.6665C14.6037 1.6665 18.3346 5.39746 18.3346 9.99984Z" stroke="#98A2B3" stroke-width="1.66667" stroke-linecap="round" stroke-linejoin="round"/>
</g>
<defs>
<clipPath id="clip0_18281_368167">
<rect width="20" height="20" fill="white"/>
</clipPath>
</defs>
</svg>
