<svg width="19" height="20" viewBox="0 0 19 20" fill="none" xmlns="http://www.w3.org/2000/svg">
<path d="M6.58366 12.2221C6.58366 13.2959 7.45422 14.1665 8.5281 14.1665H10.3337C11.4843 14.1665 12.417 13.2338 12.417 12.0832C12.417 10.9326 11.4843 9.99984 10.3337 9.99984H8.66699C7.5164 9.99984 6.58366 9.0671 6.58366 7.9165C6.58366 6.76591 7.5164 5.83317 8.66699 5.83317H10.4725C11.5464 5.83317 12.417 6.70373 12.417 7.77762M9.50033 4.58317V5.83317M9.50033 14.1665V15.4165M17.8337 9.99984C17.8337 14.6022 14.1027 18.3332 9.50033 18.3332C4.89795 18.3332 1.16699 14.6022 1.16699 9.99984C1.16699 5.39746 4.89795 1.6665 9.50033 1.6665C14.1027 1.6665 17.8337 5.39746 17.8337 9.99984Z" stroke="currentColor" stroke-width="1.66667" stroke-linecap="round" stroke-linejoin="round"/>
</svg>
