<svg width="16" height="16" viewBox="0 0 16 16" fill="none" xmlns="http://www.w3.org/2000/svg">
<g id="Icon/Development/dataflow-03" clip-path="url(#clip0_79_1760)">
<path id="Icon" d="M7.33334 2.99999H12.2C12.9467 2.99999 13.3201 3 13.6053 3.14532C13.8562 3.27315 14.0602 3.47712 14.188 3.72801C14.3333 4.01322 14.3333 4.38659 14.3333 5.13333V6C14.3333 6.62125 14.3333 6.93188 14.2319 7.17691C14.0965 7.50361 13.837 7.76318 13.5103 7.8985C13.2652 8 12.9546 8 12.3333 8M8.66668 13H3.80001C3.05327 13 2.67991 13 2.39469 12.8547C2.14381 12.7268 1.93983 12.5229 1.812 12.272C1.66668 11.9868 1.66668 11.6134 1.66668 10.8667V10C1.66668 9.37874 1.66668 9.06811 1.76817 8.82308C1.9035 8.49638 2.16306 8.23681 2.48977 8.10149C2.73479 7.99999 3.04542 8 3.66668 8M6.86668 9.66666H9.13334C9.32003 9.66666 9.41337 9.66666 9.48467 9.63033C9.54739 9.59837 9.59839 9.54738 9.63035 9.48466C9.66668 9.41335 9.66668 9.32001 9.66668 9.13333V6.86666C9.66668 6.67998 9.66668 6.58664 9.63035 6.51533C9.59839 6.45261 9.54739 6.40162 9.48467 6.36966C9.41337 6.33333 9.32003 6.33333 9.13334 6.33333H6.86668C6.67999 6.33333 6.58665 6.33333 6.51535 6.36966C6.45263 6.40162 6.40163 6.45261 6.36967 6.51533C6.33334 6.58664 6.33334 6.67998 6.33334 6.86666V9.13333C6.33334 9.32001 6.33334 9.41335 6.36967 9.48466C6.40163 9.54738 6.45263 9.59837 6.51535 9.63033C6.58665 9.66666 6.67999 9.66666 6.86668 9.66666ZM11.8667 14.6667H14.1333C14.32 14.6667 14.4134 14.6667 14.4847 14.6303C14.5474 14.5984 14.5984 14.5474 14.6303 14.4847C14.6667 14.4134 14.6667 14.32 14.6667 14.1333V11.8667C14.6667 11.68 14.6667 11.5866 14.6303 11.5153C14.5984 11.4526 14.5474 11.4016 14.4847 11.3697C14.4134 11.3333 14.32 11.3333 14.1333 11.3333H11.8667C11.68 11.3333 11.5867 11.3333 11.5153 11.3697C11.4526 11.4016 11.4016 11.4526 11.3697 11.5153C11.3333 11.5866 11.3333 11.68 11.3333 11.8667V14.1333C11.3333 14.32 11.3333 14.4134 11.3697 14.4847C11.4016 14.5474 11.4526 14.5984 11.5153 14.6303C11.5867 14.6667 11.68 14.6667 11.8667 14.6667ZM1.86668 4.66666H4.13334C4.32003 4.66666 4.41337 4.66666 4.48467 4.63033C4.54739 4.59837 4.59839 4.54738 4.63035 4.48466C4.66668 4.41335 4.66668 4.32001 4.66668 4.13333V1.86666C4.66668 1.67998 4.66668 1.58664 4.63035 1.51533C4.59839 1.45261 4.54739 1.40162 4.48467 1.36966C4.41337 1.33333 4.32003 1.33333 4.13334 1.33333H1.86668C1.67999 1.33333 1.58665 1.33333 1.51535 1.36966C1.45263 1.40162 1.40163 1.45261 1.36967 1.51533C1.33334 1.58664 1.33334 1.67998 1.33334 1.86666V4.13333C1.33334 4.32001 1.33334 4.41335 1.36967 4.48466C1.40163 4.54738 1.45263 4.59837 1.51535 4.63033C1.58665 4.66666 1.67999 4.66666 1.86668 4.66666Z" stroke="currentColor" stroke-width="1.5" stroke-linecap="round" stroke-linejoin="round"/>
</g>
<defs>
<clipPath id="clip0_79_1760">
<rect width="16" height="16" fill="currentColor"/>
</clipPath>
</defs>
</svg>
