<svg width="44" height="44" viewBox="0 0 44 44" fill="none" xmlns="http://www.w3.org/2000/svg">
<g filter="url(#filter0_d_18631_11320)">
<rect x="2" y="1" width="40" height="40" rx="8" fill="white" shape-rendering="crispEdges"/>
<rect x="2.5" y="1.5" width="39" height="39" rx="7.5" stroke="#EAECF0" shape-rendering="crispEdges"/>
<path d="M18.668 24.3333L22.0013 21M22.0013 21L25.3346 24.3333M22.0013 21V28.5M28.668 24.9524C29.6859 24.1117 30.3346 22.8399 30.3346 21.4167C30.3346 18.8854 28.2826 16.8333 25.7513 16.8333C25.5692 16.8333 25.3989 16.7383 25.3064 16.5814C24.2197 14.7374 22.2133 13.5 19.918 13.5C16.4662 13.5 13.668 16.2982 13.668 19.75C13.668 21.4718 14.3642 23.0309 15.4904 24.1613" stroke="#475467" stroke-width="1.66667" stroke-linecap="round" stroke-linejoin="round"/>
</g>
<defs>
<filter id="filter0_d_18631_11320" x="0" y="0" width="44" height="44" filterUnits="userSpaceOnUse" color-interpolation-filters="sRGB">
<feFlood flood-opacity="0" result="BackgroundImageFix"/>
<feColorMatrix in="SourceAlpha" type="matrix" values="0 0 0 0 0 0 0 0 0 0 0 0 0 0 0 0 0 0 127 0" result="hardAlpha"/>
<feOffset dy="1"/>
<feGaussianBlur stdDeviation="1"/>
<feComposite in2="hardAlpha" operator="out"/>
<feColorMatrix type="matrix" values="0 0 0 0 0.0627451 0 0 0 0 0.0941176 0 0 0 0 0.156863 0 0 0 0.05 0"/>
<feBlend mode="normal" in2="BackgroundImageFix" result="effect1_dropShadow_18631_11320"/>
<feBlend mode="normal" in="SourceGraphic" in2="effect1_dropShadow_18631_11320" result="shape"/>
</filter>
</defs>
</svg>
