<svg xmlns="http://www.w3.org/2000/svg" width="25" height="24" viewBox="0 0 25 24" fill="none">
    <path d="M9.0469 8.85323C9.7429 10.3028 10.6917 11.6615 11.8933 12.8631C13.0948 14.0646 14.4535 15.0134 15.9031 15.7094C16.0278 15.7693 16.0901 15.7992 16.169 15.8222C16.4494 15.904 16.7936 15.8453 17.0311 15.6752C17.0979 15.6274 17.155 15.5702 17.2694 15.4559C17.619 15.1063 17.7938 14.9315 17.9695 14.8172C18.6324 14.3862 19.487 14.3862 20.1499 14.8172C20.3257 14.9315 20.5005 15.1063 20.8501 15.4559L21.045 15.6508C21.5764 16.1822 21.8421 16.448 21.9865 16.7333C22.2735 17.3009 22.2735 17.9712 21.9865 18.5387C21.8421 18.8241 21.5764 19.0898 21.045 19.6213L20.8873 19.7789C20.3577 20.3085 20.0929 20.5733 19.7329 20.7756C19.3334 21 18.7129 21.1614 18.2546 21.16C17.8417 21.1588 17.5595 21.0787 16.995 20.9185C13.9616 20.0575 11.0993 18.433 8.71129 16.045C6.32331 13.6571 4.69883 10.7947 3.83786 7.76131C3.67765 7.19687 3.59755 6.91464 3.59632 6.5017C3.59496 6.04347 3.75632 5.42298 3.98074 5.02348C4.18299 4.66345 4.4478 4.39863 4.97742 3.86901L5.13506 3.71138C5.6665 3.17993 5.93222 2.91421 6.2176 2.76987C6.78516 2.4828 7.45543 2.4828 8.02299 2.76987C8.30837 2.91421 8.57409 3.17993 9.10553 3.71138L9.3004 3.90625C9.65001 4.25585 9.82481 4.43065 9.9391 4.60643C10.3701 5.26932 10.3701 6.1239 9.9391 6.78679C9.82481 6.96257 9.65001 7.13738 9.3004 7.48698C9.18609 7.60129 9.12894 7.65845 9.08109 7.72526C8.91108 7.96269 8.85238 8.30695 8.93411 8.5873C8.9571 8.6662 8.98704 8.72854 9.0469 8.85323Z" stroke="currentColor" stroke-width="2" stroke-linecap="round" stroke-linejoin="round"/>
</svg>
