<svg width="62" height="62" viewBox="0 0 62 62" fill="none" xmlns="http://www.w3.org/2000/svg">
<path d="M31 3C34.677 3 38.318 3.72424 41.7151 5.13137C45.1123 6.53851 48.199 8.60097 50.799 11.201C53.399 13.8011 55.4615 16.8878 56.8686 20.2849C58.2758 23.682 59 27.323 59 31C59 34.677 58.2758 38.318 56.8686 41.7151C55.4615 45.1123 53.399 48.199 50.799 50.799C48.1989 53.399 45.1122 55.4615 41.7151 56.8686C38.318 58.2758 34.677 59 31 59C27.323 59 23.682 58.2758 20.2849 56.8686C16.8877 55.4615 13.801 53.399 11.201 50.799C8.60096 48.1989 6.5385 45.1122 5.13137 41.7151C3.72424 38.318 3 34.677 3 31C3 27.323 3.72425 23.682 5.13138 20.2848C6.53851 16.8877 8.60098 13.801 11.201 11.201C13.8011 8.60096 16.8878 6.5385 20.2849 5.13137C23.682 3.72424 27.323 3 31 3L31 3Z" stroke="currentColor" stroke-width="5" stroke-linecap="round" stroke-linejoin="round"/>
<path d="M31 3C36.5379 3 41.9514 4.64217 46.556 7.71885C51.1605 10.7955 54.7494 15.1685 56.8686 20.2849C58.9879 25.4012 59.5424 31.0311 58.462 36.4625C57.3816 41.894 54.7149 46.8831 50.799 50.799C46.8831 54.7149 41.894 57.3816 36.4625 58.462C31.0311 59.5424 25.4012 58.9879 20.2849 56.8686C15.1685 54.7494 10.7955 51.1605 7.71885 46.556C4.64217 41.9514 3 36.5379 3 31" stroke="currentColor" stroke-width="5" stroke-linecap="round" stroke-linejoin="round"/>
<path d="M18.1147 35.1193C17.5011 35.1193 16.9556 35.0142 16.4783 34.804C16.0039 34.5937 15.6289 34.3011 15.3533 33.9261C15.0778 33.5511 14.9315 33.1179 14.9144 32.6264H16.5167C16.5309 32.8622 16.609 33.0682 16.7511 33.2443C16.8931 33.4176 17.082 33.5526 17.3178 33.6491C17.5536 33.7457 17.8178 33.794 18.1104 33.794C18.4229 33.794 18.6999 33.7401 18.9414 33.6321C19.1829 33.5213 19.3718 33.3679 19.5082 33.1719C19.6445 32.9759 19.7113 32.75 19.7085 32.4943C19.7113 32.2301 19.6431 31.9972 19.5039 31.7955C19.3647 31.5937 19.163 31.4361 18.8988 31.3224C18.6374 31.2088 18.3221 31.152 17.9528 31.152H17.1815V29.9332H17.9528C18.2567 29.9332 18.5224 29.8807 18.7496 29.7756C18.9798 29.6705 19.1602 29.5227 19.2908 29.3324C19.4215 29.1392 19.4854 28.9162 19.4826 28.6634C19.4854 28.4162 19.43 28.2017 19.3164 28.0199C19.2056 27.8352 19.0479 27.6918 18.8434 27.5895C18.6417 27.4872 18.4045 27.4361 18.1317 27.4361C17.8647 27.4361 17.6175 27.4844 17.3903 27.581C17.163 27.6776 16.9798 27.8153 16.8406 27.9943C16.7013 28.1705 16.6275 28.3807 16.619 28.625H15.0977C15.109 28.1364 15.2496 27.7074 15.5195 27.3381C15.7923 26.9659 16.1559 26.6761 16.6104 26.4688C17.065 26.2585 17.5749 26.1534 18.1403 26.1534C18.7227 26.1534 19.2283 26.2628 19.6573 26.4815C20.0891 26.6974 20.4229 26.9886 20.6587 27.3551C20.8945 27.7216 21.0124 28.1264 21.0124 28.5696C21.0153 29.0611 20.8704 29.473 20.5778 29.8054C20.288 30.1378 19.9073 30.3551 19.4357 30.4574V30.5256C20.0494 30.6108 20.5195 30.8381 20.8462 31.2074C21.1758 31.5739 21.3391 32.0298 21.3363 32.5753C21.3363 33.0639 21.1971 33.5014 20.9187 33.8878C20.6431 34.2713 20.2624 34.5724 19.7766 34.7912C19.2937 35.0099 18.7397 35.1193 18.1147 35.1193ZM28.6477 35.1278C28.0085 35.1278 27.4545 34.9872 26.9858 34.706C26.517 34.4247 26.1534 34.0312 25.8949 33.5256C25.6392 33.0199 25.5114 32.429 25.5114 31.7528C25.5114 31.0767 25.6392 30.4844 25.8949 29.9759C26.1534 29.4673 26.517 29.0724 26.9858 28.7912C27.4545 28.5099 28.0085 28.3693 28.6477 28.3693C29.2869 28.3693 29.8409 28.5099 30.3097 28.7912C30.7784 29.0724 31.1406 29.4673 31.3963 29.9759C31.6548 30.4844 31.7841 31.0767 31.7841 31.7528C31.7841 32.429 31.6548 33.0199 31.3963 33.5256C31.1406 34.0312 30.7784 34.4247 30.3097 34.706C29.8409 34.9872 29.2869 35.1278 28.6477 35.1278ZM28.6562 33.892C29.0028 33.892 29.2926 33.7969 29.5256 33.6065C29.7585 33.4134 29.9318 33.1548 30.0455 32.831C30.1619 32.5071 30.2202 32.1463 30.2202 31.7486C30.2202 31.348 30.1619 30.9858 30.0455 30.6619C29.9318 30.3352 29.7585 30.0753 29.5256 29.8821C29.2926 29.6889 29.0028 29.5923 28.6562 29.5923C28.3011 29.5923 28.0057 29.6889 27.7699 29.8821C27.5369 30.0753 27.3622 30.3352 27.2457 30.6619C27.1321 30.9858 27.0753 31.348 27.0753 31.7486C27.0753 32.1463 27.1321 32.5071 27.2457 32.831C27.3622 33.1548 27.5369 33.4134 27.7699 33.6065C28.0057 33.7969 28.3011 33.892 28.6562 33.892ZM36.4087 28.4545V29.6477H32.5394V28.4545H36.4087ZM33.5067 35V27.8366C33.5067 27.3963 33.5977 27.0298 33.7795 26.7372C33.9641 26.4446 34.2113 26.2259 34.521 26.081C34.8306 25.9361 35.1744 25.8636 35.5522 25.8636C35.8192 25.8636 36.0565 25.8849 36.2638 25.9276C36.4712 25.9702 36.6246 26.0085 36.7241 26.0426L36.4173 27.2358C36.3519 27.2159 36.2695 27.196 36.1701 27.1761C36.0707 27.1534 35.9599 27.142 35.8377 27.142C35.5508 27.142 35.3477 27.2116 35.2283 27.3509C35.1119 27.4872 35.0536 27.6832 35.0536 27.9389V35H33.5067ZM40.4187 33.3807V32.1236L44.1218 26.2727H45.1701V28.0625H44.5309L42.038 32.0128V32.081H47.207V33.3807H40.4187ZM44.582 35V32.9972L44.5991 32.4347V26.2727H46.0906V35H44.582Z" fill="#101828"/>
</svg>
