<svg width="62" height="62" viewBox="0 0 62 62" fill="none" xmlns="http://www.w3.org/2000/svg">
<path d="M31 3C34.677 3 38.318 3.72424 41.7151 5.13137C45.1123 6.53851 48.199 8.60097 50.799 11.201C53.399 13.8011 55.4615 16.8878 56.8686 20.2849C58.2758 23.682 59 27.323 59 31C59 34.677 58.2758 38.318 56.8686 41.7151C55.4615 45.1123 53.399 48.199 50.799 50.799C48.1989 53.399 45.1122 55.4615 41.7151 56.8686C38.318 58.2758 34.677 59 31 59C27.323 59 23.682 58.2758 20.2849 56.8686C16.8877 55.4615 13.801 53.399 11.201 50.799C8.60096 48.1989 6.5385 45.1122 5.13137 41.7151C3.72424 38.318 3 34.677 3 31C3 27.323 3.72425 23.682 5.13138 20.2848C6.53851 16.8877 8.60098 13.801 11.201 11.201C13.8011 8.60096 16.8878 6.5385 20.2849 5.13137C23.682 3.72424 27.323 3 31 3L31 3Z" stroke="#EAECF0" stroke-width="5" stroke-linecap="round" stroke-linejoin="round"/>
<path d="M31 3C34.677 3 38.318 3.72424 41.7151 5.13137C45.1123 6.53851 48.199 8.60097 50.799 11.201C53.399 13.8011 55.4615 16.8878 56.8686 20.2849C58.2758 23.682 59 27.323 59 31" stroke="currentColor" stroke-width="5" stroke-linecap="round" stroke-linejoin="round"/>
<path d="M19.5577 26.2727V35H17.9767V27.8111H17.9256L15.8844 29.1151V27.6662L18.0534 26.2727H19.5577ZM27.6223 35.1278C26.9831 35.1278 26.4292 34.9872 25.9604 34.706C25.4917 34.4247 25.128 34.0312 24.8695 33.5256C24.6138 33.0199 24.486 32.429 24.486 31.7528C24.486 31.0767 24.6138 30.4844 24.8695 29.9759C25.128 29.4673 25.4917 29.0724 25.9604 28.7912C26.4292 28.5099 26.9831 28.3693 27.6223 28.3693C28.2615 28.3693 28.8155 28.5099 29.2843 28.7912C29.753 29.0724 30.1152 29.4673 30.3709 29.9759C30.6294 30.4844 30.7587 31.0767 30.7587 31.7528C30.7587 32.429 30.6294 33.0199 30.3709 33.5256C30.1152 34.0312 29.753 34.4247 29.2843 34.706C28.8155 34.9872 28.2615 35.1278 27.6223 35.1278ZM27.6309 33.892C27.9775 33.892 28.2672 33.7969 28.5002 33.6065C28.7331 33.4134 28.9064 33.1548 29.0201 32.831C29.1365 32.5071 29.1948 32.1463 29.1948 31.7486C29.1948 31.348 29.1365 30.9858 29.0201 30.6619C28.9064 30.3352 28.7331 30.0753 28.5002 29.8821C28.2672 29.6889 27.9775 29.5923 27.6309 29.5923C27.2757 29.5923 26.9803 29.6889 26.7445 29.8821C26.5115 30.0753 26.3368 30.3352 26.2203 30.6619C26.1067 30.9858 26.0499 31.348 26.0499 31.7486C26.0499 32.1463 26.1067 32.5071 26.2203 32.831C26.3368 33.1548 26.5115 33.4134 26.7445 33.6065C26.9803 33.7969 27.2757 33.892 27.6309 33.892ZM35.3833 28.4545V29.6477H31.514V28.4545H35.3833ZM32.4814 35V27.8366C32.4814 27.3963 32.5723 27.0298 32.7541 26.7372C32.9387 26.4446 33.1859 26.2259 33.4956 26.081C33.8052 25.9361 34.149 25.8636 34.5268 25.8636C34.7939 25.8636 35.0311 25.8849 35.2385 25.9276C35.4458 25.9702 35.5993 26.0085 35.6987 26.0426L35.3919 27.2358C35.3265 27.2159 35.2441 27.196 35.1447 27.1761C35.0453 27.1534 34.9345 27.142 34.8123 27.142C34.5254 27.142 34.3223 27.2116 34.2029 27.3509C34.0865 27.4872 34.0282 27.6832 34.0282 27.9389V35H32.4814ZM39.3933 33.3807V32.1236L43.0964 26.2727H44.1447V28.0625H43.5055L41.0126 32.0128V32.081H46.1816V33.3807H39.3933ZM43.5566 35V32.9972L43.5737 32.4347V26.2727H45.0652V35H43.5566Z" fill="#101828"/>
</svg>
