<svg width="62" height="62" viewBox="0 0 62 62" fill="none" xmlns="http://www.w3.org/2000/svg">
<path d="M31 3C34.677 3 38.318 3.72424 41.7151 5.13137C45.1123 6.53851 48.199 8.60097 50.799 11.201C53.399 13.8011 55.4615 16.8878 56.8686 20.2849C58.2758 23.682 59 27.323 59 31C59 34.677 58.2758 38.318 56.8686 41.7151C55.4615 45.1123 53.399 48.199 50.799 50.799C48.1989 53.399 45.1122 55.4615 41.7151 56.8686C38.318 58.2758 34.677 59 31 59C27.323 59 23.682 58.2758 20.2849 56.8686C16.8877 55.4615 13.801 53.399 11.201 50.799C8.60096 48.1989 6.5385 45.1122 5.13137 41.7151C3.72424 38.318 3 34.677 3 31C3 27.323 3.72425 23.682 5.13138 20.2848C6.53851 16.8877 8.60098 13.801 11.201 11.201C13.8011 8.60096 16.8878 6.5385 20.2849 5.13137C23.682 3.72424 27.323 3 31 3L31 3Z" stroke="#currentColor" stroke-width="5" stroke-linecap="round" stroke-linejoin="round"/>
<path d="M31 3C34.677 3 38.318 3.72424 41.7151 5.13137C45.1123 6.53851 48.199 8.60097 50.799 11.201C53.399 13.8011 55.4615 16.8878 56.8686 20.2849C58.2758 23.682 59 27.323 59 31C59 34.677 58.2758 38.318 56.8686 41.7151C55.4615 45.1123 53.399 48.199 50.799 50.799C48.1989 53.399 45.1122 55.4615 41.7151 56.8686C38.318 58.2758 34.677 59 31 59C27.323 59 23.682 58.2758 20.2849 56.8686C16.8877 55.4615 13.801 53.399 11.201 50.799C8.60096 48.1989 6.5385 45.1122 5.13137 41.7151C3.72424 38.318 3 34.677 3 31C3 27.323 3.72425 23.682 5.13138 20.2848C6.53851 16.8877 8.60098 13.801 11.201 11.201C13.8011 8.60096 16.8878 6.5385 20.2849 5.13137C23.682 3.72424 27.323 3 31 3L31 3Z" stroke="currentColor" stroke-width="5" stroke-linecap="round" stroke-linejoin="round"/>
<path d="M14.737 33.3807V32.1236L18.4402 26.2727H19.4885V28.0625H18.8493L16.3564 32.0128V32.081H21.5254V33.3807H14.737ZM18.9004 35V32.9972L18.9174 32.4347V26.2727H20.4089V35H18.9004ZM28.7356 35.1278C28.0964 35.1278 27.5424 34.9872 27.0737 34.706C26.6049 34.4247 26.2413 34.0312 25.9828 33.5256C25.7271 33.0199 25.5993 32.429 25.5993 31.7528C25.5993 31.0767 25.7271 30.4844 25.9828 29.9759C26.2413 29.4673 26.6049 29.0724 27.0737 28.7912C27.5424 28.5099 28.0964 28.3693 28.7356 28.3693C29.3748 28.3693 29.9288 28.5099 30.3975 28.7912C30.8663 29.0724 31.2285 29.4673 31.4842 29.9759C31.7427 30.4844 31.872 31.0767 31.872 31.7528C31.872 32.429 31.7427 33.0199 31.4842 33.5256C31.2285 34.0312 30.8663 34.4247 30.3975 34.706C29.9288 34.9872 29.3748 35.1278 28.7356 35.1278ZM28.7441 33.892C29.0907 33.892 29.3805 33.7969 29.6135 33.6065C29.8464 33.4134 30.0197 33.1548 30.1333 32.831C30.2498 32.5071 30.3081 32.1463 30.3081 31.7486C30.3081 31.348 30.2498 30.9858 30.1333 30.6619C30.0197 30.3352 29.8464 30.0753 29.6135 29.8821C29.3805 29.6889 29.0907 29.5923 28.7441 29.5923C28.389 29.5923 28.0936 29.6889 27.8578 29.8821C27.6248 30.0753 27.4501 30.3352 27.3336 30.6619C27.22 30.9858 27.1632 31.348 27.1632 31.7486C27.1632 32.1463 27.22 32.5071 27.3336 32.831C27.4501 33.1548 27.6248 33.4134 27.8578 33.6065C28.0936 33.7969 28.389 33.892 28.7441 33.892ZM36.4966 28.4545V29.6477H32.6273V28.4545H36.4966ZM33.5946 35V27.8366C33.5946 27.3963 33.6855 27.0298 33.8674 26.7372C34.052 26.4446 34.2992 26.2259 34.6088 26.081C34.9185 25.9361 35.2623 25.8636 35.6401 25.8636C35.9071 25.8636 36.1444 25.8849 36.3517 25.9276C36.5591 25.9702 36.7125 26.0085 36.812 26.0426L36.5051 27.2358C36.4398 27.2159 36.3574 27.196 36.258 27.1761C36.1586 27.1534 36.0478 27.142 35.9256 27.142C35.6387 27.142 35.4355 27.2116 35.3162 27.3509C35.1998 27.4872 35.1415 27.6832 35.1415 27.9389V35H33.5946ZM40.5066 33.3807V32.1236L44.2097 26.2727H45.258V28.0625H44.6188L42.1259 32.0128V32.081H47.2949V33.3807H40.5066ZM44.6699 35V32.9972L44.687 32.4347V26.2727H46.1784V35H44.6699Z" fill="#101828"/>
</svg>
