<svg width="62" height="62" viewBox="0 0 62 62" fill="none" xmlns="http://www.w3.org/2000/svg">
<path d="M31 3C34.677 3 38.318 3.72424 41.7151 5.13137C45.1123 6.53851 48.199 8.60097 50.799 11.201C53.399 13.8011 55.4615 16.8878 56.8686 20.2849C58.2758 23.682 59 27.323 59 31C59 34.677 58.2758 38.318 56.8686 41.7151C55.4615 45.1123 53.399 48.199 50.799 50.799C48.1989 53.399 45.1122 55.4615 41.7151 56.8686C38.318 58.2758 34.677 59 31 59C27.323 59 23.682 58.2758 20.2849 56.8686C16.8877 55.4615 13.801 53.399 11.201 50.799C8.60096 48.1989 6.5385 45.1122 5.13137 41.7151C3.72424 38.318 3 34.677 3 31C3 27.323 3.72425 23.682 5.13138 20.2848C6.53851 16.8877 8.60098 13.801 11.201 11.201C13.8011 8.60096 16.8878 6.5385 20.2849 5.13137C23.682 3.72424 27.323 3 31 3L31 3Z" stroke="currentColor" stroke-width="5" stroke-linecap="round" stroke-linejoin="round"/>
<path d="M31 3C34.677 3 38.318 3.72424 41.7151 5.13137C45.1123 6.53851 48.199 8.60097 50.799 11.201C53.399 13.8011 55.4615 16.8878 56.8686 20.2849C58.2758 23.682 59 27.323 59 31C59 34.677 58.2758 38.318 56.8686 41.7151C55.4615 45.1123 53.399 48.199 50.799 50.799C48.1989 53.399 45.1122 55.4615 41.7151 56.8686C38.318 58.2758 34.677 59 31 59" stroke="currentColor" stroke-width="5" stroke-linecap="round" stroke-linejoin="round"/>
<path d="M15.1642 35V33.858L18.1941 30.8878C18.4838 30.5952 18.7253 30.3352 18.9185 30.108C19.1117 29.8807 19.2566 29.6605 19.3532 29.4474C19.4498 29.2344 19.498 29.0071 19.498 28.7656C19.498 28.4901 19.4355 28.2543 19.3105 28.0582C19.1855 27.8594 19.0137 27.706 18.7949 27.598C18.5762 27.4901 18.3276 27.4361 18.0492 27.4361C17.7623 27.4361 17.5108 27.4957 17.2949 27.6151C17.079 27.7315 16.9114 27.8977 16.7921 28.1136C16.6756 28.3295 16.6174 28.5866 16.6174 28.8849H15.1131C15.1131 28.331 15.2395 27.8494 15.4924 27.4403C15.7452 27.0312 16.0932 26.7145 16.5364 26.4901C16.9824 26.2656 17.4938 26.1534 18.0705 26.1534C18.6557 26.1534 19.1699 26.2628 19.6131 26.4815C20.0563 26.7003 20.4 27 20.6444 27.3807C20.8915 27.7614 21.0151 28.196 21.0151 28.6847C21.0151 29.0114 20.9526 29.3324 20.8276 29.6477C20.7026 29.9631 20.4824 30.3125 20.1671 30.696C19.8546 31.0795 19.4157 31.544 18.8503 32.0895L17.3461 33.6193V33.679H21.1472V35H15.1642ZM28.4661 35.1278C27.8269 35.1278 27.2729 34.9872 26.8042 34.706C26.3354 34.4247 25.9718 34.0312 25.7132 33.5256C25.4576 33.0199 25.3297 32.429 25.3297 31.7528C25.3297 31.0767 25.4576 30.4844 25.7132 29.9759C25.9718 29.4673 26.3354 29.0724 26.8042 28.7912C27.2729 28.5099 27.8269 28.3693 28.4661 28.3693C29.1053 28.3693 29.6593 28.5099 30.128 28.7912C30.5968 29.0724 30.959 29.4673 31.2147 29.9759C31.4732 30.4844 31.6025 31.0767 31.6025 31.7528C31.6025 32.429 31.4732 33.0199 31.2147 33.5256C30.959 34.0312 30.5968 34.4247 30.128 34.706C29.6593 34.9872 29.1053 35.1278 28.4661 35.1278ZM28.4746 33.892C28.8212 33.892 29.111 33.7969 29.3439 33.6065C29.5769 33.4134 29.7502 33.1548 29.8638 32.831C29.9803 32.5071 30.0385 32.1463 30.0385 31.7486C30.0385 31.348 29.9803 30.9858 29.8638 30.6619C29.7502 30.3352 29.5769 30.0753 29.3439 29.8821C29.111 29.6889 28.8212 29.5923 28.4746 29.5923C28.1195 29.5923 27.824 29.6889 27.5882 29.8821C27.3553 30.0753 27.1806 30.3352 27.0641 30.6619C26.9505 30.9858 26.8936 31.348 26.8936 31.7486C26.8936 32.1463 26.9505 32.5071 27.0641 32.831C27.1806 33.1548 27.3553 33.4134 27.5882 33.6065C27.824 33.7969 28.1195 33.892 28.4746 33.892ZM36.2271 28.4545V29.6477H32.3578V28.4545H36.2271ZM33.3251 35V27.8366C33.3251 27.3963 33.416 27.0298 33.5978 26.7372C33.7825 26.4446 34.0297 26.2259 34.3393 26.081C34.649 25.9361 34.9927 25.8636 35.3706 25.8636C35.6376 25.8636 35.8748 25.8849 36.0822 25.9276C36.2896 25.9702 36.443 26.0085 36.5424 26.0426L36.2356 27.2358C36.1703 27.2159 36.0879 27.196 35.9885 27.1761C35.889 27.1534 35.7782 27.142 35.6561 27.142C35.3691 27.142 35.166 27.2116 35.0467 27.3509C34.9302 27.4872 34.872 27.6832 34.872 27.9389V35H33.3251ZM40.237 33.3807V32.1236L43.9402 26.2727H44.9885V28.0625H44.3493L41.8564 32.0128V32.081H47.0254V33.3807H40.237ZM44.4004 35V32.9972L44.4174 32.4347V26.2727H45.9089V35H44.4004Z" fill="#101828"/>
</svg>
