<svg width="48" height="48" viewBox="0 0 48 48" fill="none" xmlns="http://www.w3.org/2000/svg">
<rect width="48" height="48" rx="24" fill="#F2F4F7"/>
<g opacity="0.08">
<rect x="0.375" y="0.375" width="47.25" height="47.25" rx="23.625" stroke="black" stroke-width="0.75"/>
</g>
<path d="M14.9828 34.1826L22.6788 26.4866C23.1408 26.0246 23.3718 25.7936 23.6382 25.707C23.8725 25.6309 24.1249 25.6309 24.3592 25.707C24.6256 25.7936 24.8566 26.0246 25.3186 26.4866L32.9633 34.1312M26.332 27.5L29.6788 24.1533C30.1408 23.6912 30.3718 23.4602 30.6382 23.3737C30.8725 23.2976 31.1249 23.2976 31.3592 23.3737C31.6256 23.4602 31.8566 23.6912 32.3186 24.1533L35.6654 27.5M21.6654 20.5C21.6654 21.7887 20.6207 22.8333 19.332 22.8333C18.0434 22.8333 16.9987 21.7887 16.9987 20.5C16.9987 19.2113 18.0434 18.1667 19.332 18.1667C20.6207 18.1667 21.6654 19.2113 21.6654 20.5ZM17.932 34.5H30.0654C32.0255 34.5 33.0056 34.5 33.7543 34.1185C34.4129 33.783 34.9483 33.2475 35.2839 32.589C35.6654 31.8403 35.6654 30.8602 35.6654 28.9V19.1C35.6654 17.1398 35.6654 16.1597 35.2839 15.411C34.9483 14.7525 34.4129 14.217 33.7543 13.8815C33.0056 13.5 32.0255 13.5 30.0654 13.5H17.932C15.9718 13.5 14.9918 13.5 14.2431 13.8815C13.5845 14.217 13.0491 14.7525 12.7135 15.411C12.332 16.1597 12.332 17.1398 12.332 19.1V28.9C12.332 30.8602 12.332 31.8403 12.7135 32.589C13.0491 33.2475 13.5845 33.783 14.2431 34.1185C14.9918 34.5 15.9718 34.5 17.932 34.5Z" stroke="#475467" stroke-width="2" stroke-linecap="round" stroke-linejoin="round"/>
</svg>
