<svg width="26" height="24" viewBox="0 0 26 24" fill="none" xmlns="http://www.w3.org/2000/svg">
<path d="M24.6663 22.5V20.1667C24.6663 17.9922 23.1791 16.1651 21.1663 15.647M17.083 1.83922C18.7932 2.5315 19.9997 4.2082 19.9997 6.16667C19.9997 8.12514 18.7932 9.80183 17.083 10.4941M18.833 22.5C18.833 20.3256 18.833 19.2384 18.4778 18.3808C18.0041 17.2373 17.0957 16.3289 15.9522 15.8552C15.0946 15.5 14.0074 15.5 11.833 15.5H8.33301C6.15861 15.5 5.07142 15.5 4.21382 15.8552C3.07035 16.3289 2.16188 17.2373 1.68824 18.3808C1.33301 19.2384 1.33301 20.3256 1.33301 22.5M14.7497 6.16667C14.7497 8.744 12.6603 10.8333 10.083 10.8333C7.50568 10.8333 5.41634 8.744 5.41634 6.16667C5.41634 3.58934 7.50568 1.5 10.083 1.5C12.6603 1.5 14.7497 3.58934 14.7497 6.16667Z" stroke="white" stroke-width="2" stroke-linecap="round" stroke-linejoin="round"/>
</svg>
